<?xml version="1.0" encoding="UTF-8" ?>
<!DOCTYPE svg PUBLIC "-//W3C//DTD SVG 1.1//EN" "http://www.w3.org/Graphics/SVG/1.1/DTD/svg11.dtd">
<svg width="328pt" height="328pt" viewBox="0 0 328 328" version="1.1" xmlns="http://www.w3.org/2000/svg">
<g id="#ffffffff">
<path fill="#ffffff" opacity="1.00" d=" M 156.22 40.33 C 161.74 23.05 180.28 11.54 198.15 13.25 C 208.60 14.51 218.52 19.65 225.33 27.72 C 256.38 64.34 287.50 100.91 318.53 137.55 C 323.69 143.20 326.38 150.52 328.00 157.89 L 328.00 170.25 C 326.33 177.33 323.88 184.46 318.92 189.96 C 291.50 222.41 263.91 254.73 236.47 287.18 C 229.73 294.45 224.34 303.29 215.69 308.53 C 211.22 311.72 205.79 313.02 200.58 314.45 C 189.97 316.03 178.82 313.02 170.22 306.69 C 160.66 300.05 154.94 288.71 153.94 277.25 C 153.07 266.34 157.04 255.23 164.30 247.07 C 176.48 232.83 188.38 218.36 200.78 204.32 C 146.17 204.37 91.55 204.36 36.94 204.33 C 27.49 203.33 18.02 199.57 11.47 192.50 C 5.19 186.62 1.63 178.47 0.00 170.14 L 0.00 157.75 C 1.68 149.46 5.21 141.34 11.49 135.48 C 18.05 128.40 27.54 124.65 37.00 123.67 C 91.59 123.65 146.19 123.63 200.78 123.68 C 188.29 109.49 176.25 94.89 163.96 80.53 C 154.59 69.69 151.05 53.84 156.22 40.33 Z" />
</g>
</svg>
