<?xml version="1.0" encoding="UTF-8" ?>
<!DOCTYPE svg PUBLIC "-//W3C//DTD SVG 1.1//EN" "http://www.w3.org/Graphics/SVG/1.1/DTD/svg11.dtd">
<svg width="333pt" height="333pt" viewBox="0 0 333 333" version="1.1" xmlns="http://www.w3.org/2000/svg">
<g id="#d9d93bff">
<path fill="#d9d93b" opacity="1.00" d=" M 96.00 6.78 C 105.63 -1.28 120.07 -2.08 131.21 3.08 C 137.30 5.56 140.74 11.76 146.81 14.25 C 153.24 17.82 160.92 15.97 167.40 13.56 C 175.48 10.83 181.93 3.38 190.98 3.79 C 196.61 3.34 201.15 8.47 202.14 13.65 C 203.96 22.74 200.58 31.80 197.29 40.17 C 190.57 55.43 181.94 69.80 172.16 83.29 C 178.78 82.24 185.87 84.54 189.98 89.98 C 194.14 94.66 195.44 101.39 194.10 107.40 C 192.13 115.54 184.55 122.29 176.02 122.30 C 138.08 122.28 100.13 122.34 62.19 122.27 C 53.68 130.20 46.37 139.27 39.13 148.35 C 37.00 150.69 33.79 150.40 31.07 149.50 C 29.39 147.08 27.58 144.30 29.34 141.38 C 35.22 133.90 41.19 126.47 47.79 119.61 C 42.77 116.20 39.15 110.78 38.45 104.70 C 37.73 97.04 41.77 89.12 48.50 85.32 C 52.13 83.01 56.58 83.09 60.72 83.23 C 52.87 71.90 45.48 60.23 39.24 47.95 C 34.69 37.61 29.50 26.76 30.54 15.15 C 31.32 9.81 35.05 4.13 40.93 3.85 C 48.48 2.86 54.59 8.17 60.92 11.33 C 68.18 14.93 76.84 18.06 84.84 14.97 C 89.43 13.57 92.41 9.67 96.00 6.78 M 108.33 13.16 C 102.60 15.39 99.40 21.12 94.00 23.87 C 83.37 29.98 70.07 28.64 59.23 23.81 C 53.51 21.30 48.55 17.34 42.61 15.32 C 41.34 17.93 41.69 20.74 42.40 23.44 C 43.16 26.09 43.84 28.78 44.91 31.33 C 50.90 45.53 58.82 58.81 67.33 71.63 C 70.30 75.36 72.41 79.78 75.82 83.12 C 80.02 83.38 84.24 83.15 88.44 83.22 C 88.38 73.81 88.41 64.39 88.40 54.99 C 88.38 51.29 92.96 48.25 96.33 49.88 C 98.24 50.35 99.14 52.26 100.29 53.65 C 100.06 63.50 100.33 73.36 100.14 83.21 C 111.00 83.22 121.86 83.24 132.72 83.20 C 132.59 74.08 132.66 64.97 132.65 55.86 C 132.58 54.13 133.67 52.67 134.29 51.12 C 135.58 50.54 136.82 49.81 138.18 49.39 C 140.77 49.26 142.72 51.26 144.47 52.88 C 144.33 62.99 144.50 73.10 144.37 83.22 C 148.78 83.22 153.18 83.21 157.58 83.23 C 165.53 72.42 172.93 61.19 179.38 49.42 C 183.79 41.03 188.30 32.58 190.80 23.39 C 191.26 20.79 191.23 18.15 191.17 15.53 C 185.71 16.43 181.41 20.13 176.66 22.63 C 168.66 26.41 159.73 28.74 150.84 27.76 C 143.44 26.73 136.47 23.10 131.26 17.76 C 125.59 11.62 115.93 10.04 108.33 13.16 M 55.21 95.30 C 52.14 96.66 50.86 99.90 49.87 102.86 C 50.73 106.40 52.97 109.28 56.43 110.57 C 95.63 110.47 134.84 110.56 174.04 110.53 C 175.63 110.56 177.18 110.17 178.72 109.81 C 180.15 108.22 182.02 106.82 182.51 104.62 C 184.13 100.00 179.77 94.86 175.08 94.94 C 137.38 94.88 99.68 94.96 61.99 94.90 C 59.73 94.96 57.41 94.70 55.21 95.30 Z" />
<path fill="#d9d93b" opacity="1.00" d=" M 189.42 139.03 C 192.21 138.25 195.14 138.52 198.00 138.48 C 238.00 138.54 278.01 138.44 318.01 138.53 C 325.38 138.81 331.48 144.72 333.00 151.78 L 333.00 320.46 C 331.51 326.56 326.31 331.45 320.29 333.00 L 190.03 333.00 C 184.84 331.60 180.59 327.62 178.30 322.83 C 177.04 320.08 177.62 316.98 177.50 314.07 C 177.54 260.66 177.52 207.25 177.51 153.84 C 177.52 146.95 182.94 140.88 189.42 139.03 M 189.28 154.97 C 189.31 209.34 189.26 263.71 189.31 318.08 C 190.07 319.27 191.16 320.22 192.11 321.27 C 234.29 321.21 276.47 321.30 318.64 321.23 C 319.56 319.86 321.50 318.86 321.25 316.98 C 321.33 262.57 321.12 208.15 321.35 153.74 C 320.13 151.94 318.43 149.95 316.01 150.26 C 275.66 150.28 235.30 150.28 194.95 150.27 C 192.18 149.92 189.25 152.07 189.28 154.97 Z" />
<path fill="#d9d93b" opacity="1.00" d=" M 111.50 146.27 C 112.87 144.70 115.07 144.33 116.89 143.50 C 118.34 144.19 119.98 144.67 121.02 145.98 C 123.31 148.51 122.00 152.16 122.20 155.21 C 134.34 156.72 146.56 161.92 154.24 171.75 C 158.93 177.48 161.49 184.88 161.39 192.28 C 161.09 193.24 160.80 194.21 160.53 195.19 C 157.98 197.49 153.90 198.03 151.12 195.81 C 148.55 193.34 150.11 189.41 148.72 186.40 C 145.24 174.91 133.23 169.08 122.21 167.08 C 122.34 183.50 122.38 199.92 122.20 216.34 C 135.05 217.80 147.90 223.67 155.51 234.44 C 160.00 240.70 161.86 248.58 161.32 256.20 C 160.27 261.04 158.68 265.81 155.92 269.95 C 148.57 281.23 135.20 287.11 122.23 288.82 C 122.28 291.33 122.30 293.84 122.40 296.35 C 120.81 299.48 117.38 300.31 114.11 299.94 C 110.23 297.67 110.31 293.16 110.47 289.22 C 110.32 289.03 110.01 288.65 109.86 288.45 C 95.66 287.09 81.79 279.13 75.02 266.34 C 73.45 262.60 71.92 258.69 72.13 254.55 C 71.85 253.93 71.57 253.30 71.29 252.68 C 71.91 251.19 72.53 249.69 73.16 248.20 C 75.23 247.25 77.59 245.54 79.88 246.98 C 83.84 248.09 83.65 252.87 84.02 256.17 C 86.92 268.00 99.06 275.29 110.56 276.57 C 110.54 260.28 110.46 243.99 110.60 227.70 C 101.81 226.41 93.03 223.64 85.94 218.13 C 80.85 213.72 76.02 208.65 73.70 202.20 C 72.46 198.73 72.14 195.04 71.56 191.43 C 72.22 184.90 73.76 178.17 77.93 172.90 C 85.44 162.42 98.17 157.07 110.60 155.18 C 110.62 152.21 109.98 149.00 111.50 146.27 M 100.05 170.19 C 92.65 173.52 85.77 179.52 84.00 187.77 C 83.50 192.46 83.88 197.53 86.56 201.57 C 91.75 209.61 101.23 214.39 110.57 215.40 C 110.51 199.28 110.49 183.16 110.58 167.05 C 107.08 168.12 103.47 168.83 100.05 170.19 M 122.28 228.14 C 122.27 244.25 122.39 260.37 122.22 276.48 C 133.31 275.42 145.04 268.89 148.67 257.81 C 150.99 251.32 148.50 243.95 143.88 239.12 C 138.42 232.78 130.27 229.76 122.28 228.14 Z" />
<path fill="#d9d93b" opacity="1.00" d=" M 213.51 166.55 C 240.69 166.32 267.87 166.54 295.05 166.44 C 301.20 166.02 305.93 172.20 305.75 177.96 C 305.72 184.97 305.71 191.99 305.75 199.00 C 305.91 203.62 303.34 208.53 298.91 210.28 C 295.47 211.81 291.64 211.36 287.99 211.41 C 264.66 211.40 241.33 211.39 218.00 211.42 C 213.77 211.50 209.05 210.01 206.79 206.19 C 204.06 201.59 204.95 196.05 204.82 190.96 C 204.96 185.99 204.51 180.99 205.06 176.05 C 205.55 171.55 208.95 167.35 213.51 166.55 M 216.61 178.24 C 216.63 185.37 216.66 192.50 216.59 199.62 C 242.37 199.66 268.16 199.64 293.95 199.64 C 293.90 192.51 293.86 185.39 293.97 178.27 C 268.18 178.21 242.40 178.26 216.61 178.24 Z" />
<path fill="#d9d93b" opacity="1.00" d=" M 12.21 170.02 C 13.71 166.40 19.18 165.04 21.75 168.31 C 24.17 170.31 23.80 173.84 22.53 176.38 C 14.97 192.79 11.06 210.96 11.74 229.04 C 11.34 242.42 13.43 255.88 17.86 268.51 C 22.73 282.65 32.21 295.09 44.46 303.65 C 62.17 315.74 83.89 320.09 104.97 321.26 C 118.07 321.08 131.28 322.01 144.25 319.65 C 150.91 318.78 157.36 316.53 164.12 316.60 C 165.16 317.64 166.19 318.68 167.23 319.73 C 167.21 321.52 167.21 323.31 167.22 325.11 C 165.84 326.23 164.56 327.62 162.78 328.09 C 153.24 330.62 143.42 331.82 133.65 333.00 L 100.82 333.00 C 85.97 331.52 70.99 329.36 57.04 323.79 C 43.22 318.23 30.03 310.06 20.77 298.17 C 7.59 282.30 2.01 261.65 0.00 241.47 L 0.00 209.90 C 1.69 205.46 2.11 200.69 3.17 196.09 C 5.25 187.11 8.30 178.36 12.21 170.02 Z" />
<path fill="#d9d93b" opacity="1.00" d=" M 206.48 228.58 C 210.05 226.84 214.04 226.75 217.93 226.90 C 222.66 227.09 227.94 226.07 232.10 228.93 C 234.43 231.65 233.49 235.10 231.79 237.84 C 227.74 239.48 223.27 238.48 219.04 238.74 C 214.84 238.44 210.36 239.58 206.41 237.71 C 205.79 236.15 205.02 234.62 204.73 232.95 C 205.17 231.44 205.87 230.02 206.48 228.58 Z" />
<path fill="#d9d93b" opacity="1.00" d=" M 246.32 228.09 C 249.37 226.80 252.76 226.88 256.01 226.90 C 260.94 227.00 266.08 226.32 270.71 228.44 C 271.42 230.02 272.10 231.62 272.80 233.22 C 272.02 235.38 270.67 237.22 268.99 238.77 C 261.83 238.58 254.65 238.97 247.50 238.60 C 242.96 237.26 242.52 230.54 246.32 228.09 Z" />
<path fill="#d9d93b" opacity="1.00" d=" M 282.71 230.63 C 285.76 226.27 291.28 226.80 295.94 226.91 C 301.06 227.09 307.35 225.69 310.94 230.39 C 311.38 233.53 310.55 236.53 308.23 238.72 C 300.98 238.63 293.70 238.96 286.45 238.59 C 282.99 237.58 282.60 233.64 282.71 230.63 Z" />
<path fill="#d9d93b" opacity="1.00" d=" M 206.53 250.60 C 213.55 248.75 221.00 250.13 228.20 249.72 C 233.40 249.18 235.35 256.76 231.67 259.72 C 228.57 261.98 224.60 261.50 221.00 261.51 C 216.11 261.31 210.91 262.36 206.44 259.79 C 205.81 258.20 204.86 256.69 204.75 254.95 C 205.21 253.45 205.92 252.04 206.53 250.60 Z" />
<path fill="#d9d93b" opacity="1.00" d=" M 246.21 260.04 C 242.22 257.72 243.25 250.53 247.94 249.79 C 254.33 249.60 260.73 249.77 267.13 249.71 C 269.18 249.31 270.36 251.30 271.71 252.43 C 271.97 253.15 272.48 254.58 272.74 255.30 C 272.12 256.77 271.59 258.30 270.77 259.68 C 266.96 262.18 262.24 261.38 257.94 261.50 C 254.02 261.31 249.72 262.27 246.21 260.04 Z" />
<path fill="#d9d93b" opacity="1.00" d=" M 282.81 254.95 C 282.55 252.70 284.54 251.22 285.80 249.67 C 293.18 249.78 300.56 249.70 307.95 249.71 C 308.94 250.72 309.94 251.73 310.95 252.74 C 310.90 254.48 310.89 256.22 310.89 257.96 C 309.94 258.89 308.98 259.83 308.04 260.78 C 300.65 261.95 292.95 261.89 285.56 260.77 C 284.22 259.07 282.38 257.33 282.81 254.95 Z" />
<path fill="#d9d93b" opacity="1.00" d=" M 206.19 273.49 C 207.05 272.93 207.91 272.38 208.77 271.81 C 216.42 272.28 224.33 270.79 231.81 272.71 C 233.41 275.25 234.02 278.15 232.84 281.01 C 231.47 281.99 230.03 282.88 228.53 283.66 C 222.24 283.41 215.90 283.96 209.64 283.40 C 205.16 282.42 203.51 277.04 206.19 273.49 Z" />
<path fill="#d9d93b" opacity="1.00" d=" M 243.64 279.22 C 243.52 276.26 244.43 272.68 247.73 271.92 C 254.84 271.65 261.97 271.89 269.09 271.82 C 270.68 273.38 271.99 275.18 272.83 277.26 C 272.17 278.78 271.52 280.30 270.85 281.82 C 269.70 282.40 268.55 283.00 267.41 283.61 C 261.32 283.53 255.23 283.80 249.16 283.50 C 246.54 283.34 245.01 281.16 243.64 279.22 Z" />
<path fill="#d9d93b" opacity="1.00" d=" M 282.76 280.00 C 282.50 276.84 283.10 272.75 286.77 271.91 C 292.16 271.64 297.57 271.91 302.97 271.79 C 305.21 271.82 307.98 271.47 309.58 273.44 C 311.31 275.19 310.79 277.80 311.02 280.03 C 309.33 281.73 307.43 283.58 304.86 283.59 C 299.53 283.66 294.20 283.66 288.88 283.58 C 286.31 283.58 284.44 281.68 282.76 280.00 Z" />
<path fill="#d9d93b" opacity="1.00" d=" M 208.36 294.18 C 214.53 293.53 220.82 294.09 227.03 293.89 C 230.87 293.19 234.17 297.14 233.57 300.78 C 233.06 303.80 229.95 305.73 227.04 305.72 C 221.69 305.73 216.34 305.78 210.99 305.69 C 208.20 305.70 205.55 303.80 205.05 300.98 C 203.88 298.18 206.31 295.70 208.36 294.18 Z" />
<path fill="#d9d93b" opacity="1.00" d=" M 244.65 295.74 C 246.27 294.76 247.96 293.63 249.96 293.90 C 255.70 293.96 261.45 293.78 267.19 293.99 C 270.13 294.11 272.37 296.87 272.61 299.68 C 271.91 301.92 271.05 304.79 268.37 305.31 C 264.34 306.27 260.09 305.48 255.98 305.73 C 252.25 305.50 247.37 306.92 244.95 303.12 C 242.91 301.06 244.24 298.17 244.65 295.74 Z" />
<path fill="#d9d93b" opacity="1.00" d=" M 284.28 304.33 C 281.77 301.05 282.29 294.95 286.94 294.04 C 293.64 293.84 300.38 293.72 307.07 294.11 C 310.77 294.72 311.17 299.00 311.06 302.02 C 309.58 303.89 307.59 305.90 305.00 305.73 C 299.67 305.73 294.34 305.75 289.02 305.72 C 287.32 305.78 285.82 304.88 284.28 304.33 Z" />
</g>
</svg>
