<?xml version="1.0" encoding="UTF-8" ?>
<!DOCTYPE svg PUBLIC "-//W3C//DTD SVG 1.1//EN" "http://www.w3.org/Graphics/SVG/1.1/DTD/svg11.dtd">
<svg width="333pt" height="333pt" viewBox="0 0 333 333" version="1.1" xmlns="http://www.w3.org/2000/svg">
<g id="#5cc9d4ff">
<path fill="#5cc9d4" opacity="1.00" d=" M 40.59 55.58 C 45.71 51.90 52.00 50.35 58.07 49.06 C 110.71 48.93 163.36 49.03 216.00 49.00 C 235.23 51.32 251.68 67.77 254.00 87.00 C 254.00 123.33 254.00 159.67 254.00 196.00 C 253.00 204.39 248.87 212.11 243.74 218.72 C 235.30 228.28 222.67 233.61 210.03 234.03 C 181.13 233.99 152.23 233.96 123.33 234.04 C 118.79 238.59 114.60 243.58 109.30 247.28 C 106.61 249.59 104.45 252.48 101.58 254.59 C 97.58 257.17 94.92 261.33 90.86 263.85 C 84.80 269.52 78.12 274.49 71.59 279.60 C 68.48 281.51 65.27 284.61 61.35 283.92 C 58.52 281.89 58.48 278.13 58.01 275.00 C 58.12 267.41 57.71 259.79 58.22 252.22 C 59.74 247.85 58.25 243.11 59.81 238.75 C 59.97 236.91 60.83 234.21 58.66 233.24 C 52.84 232.60 47.07 231.02 42.02 227.98 C 37.14 225.39 33.64 221.03 29.75 217.24 C 23.96 210.50 21.07 201.71 20.02 193.01 C 19.96 159.33 20.05 125.65 19.97 91.97 C 20.47 77.54 28.00 63.05 40.59 55.58 M 40.98 92.99 C 41.05 126.31 40.94 159.63 41.03 192.95 C 42.47 200.72 47.53 207.96 54.98 211.02 C 59.30 213.61 64.42 212.57 69.07 213.92 C 73.78 213.86 78.44 214.09 83.03 215.21 C 82.82 225.25 80.09 235.11 80.00 245.16 C 84.15 242.69 87.30 239.04 90.85 235.84 C 95.46 232.87 98.66 228.30 102.85 224.84 C 107.58 221.57 111.29 217.09 115.33 213.04 C 147.55 212.94 179.78 213.04 212.00 212.99 C 224.06 212.31 233.80 200.85 234.02 189.03 C 233.95 156.37 234.07 123.71 233.96 91.05 C 232.76 84.95 230.15 78.78 225.18 74.79 C 219.58 70.24 212.09 68.60 205.00 68.99 C 158.00 69.02 111.00 68.99 64.00 69.00 C 52.00 69.84 40.07 80.36 40.98 92.99 Z" />
<path fill="#5cc9d4" opacity="1.00" d=" M 84.48 86.60 C 91.07 85.71 98.11 88.47 102.44 93.52 C 107.58 99.77 110.29 107.91 110.02 115.99 C 110.39 126.82 106.56 138.06 98.53 145.53 C 92.01 152.47 80.27 153.96 72.38 148.50 C 68.84 146.50 66.50 143.05 64.57 139.57 C 57.73 126.87 59.28 110.71 66.75 98.63 C 71.15 92.90 76.80 87.12 84.48 86.60 Z" />
<path fill="#5cc9d4" opacity="1.00" d=" M 178.47 86.60 C 185.14 85.69 192.22 88.27 196.65 93.40 C 203.43 99.38 206.36 108.41 207.60 117.11 C 208.49 126.19 206.58 135.79 201.13 143.24 C 196.36 150.34 186.82 153.46 178.69 151.01 C 169.49 148.32 163.38 139.68 160.21 131.06 C 156.48 119.33 156.81 105.42 164.28 95.18 C 167.48 90.39 172.84 87.45 178.47 86.60 Z" />
<path fill="#5cc9d4" opacity="1.00" d=" M 259.30 113.30 C 260.91 111.02 263.71 110.07 266.17 109.02 C 273.13 108.87 279.65 112.07 285.61 115.39 C 299.76 124.37 308.68 141.21 307.82 158.01 C 307.80 175.34 307.80 192.66 307.81 209.99 C 308.52 220.72 305.34 231.52 299.31 240.38 C 294.82 246.83 288.45 251.63 282.02 255.99 C 280.78 256.78 279.33 256.98 277.93 257.27 C 279.81 263.55 280.46 270.13 281.43 276.59 C 282.87 281.58 281.49 287.25 278.20 291.21 C 274.63 294.06 269.33 295.30 265.29 292.70 C 260.68 290.55 257.40 286.58 253.30 283.71 C 249.75 280.59 246.87 276.72 242.85 274.16 C 238.26 269.99 233.98 265.49 229.67 261.04 C 212.45 260.93 195.22 261.06 177.99 260.98 C 170.62 259.74 162.45 259.63 156.38 254.64 C 151.71 251.93 150.71 245.51 152.96 240.95 C 155.72 235.55 163.56 234.16 168.18 237.88 C 170.46 239.44 173.24 240.15 175.99 240.12 C 196.50 240.44 217.05 239.85 237.54 240.41 C 244.13 246.31 249.83 253.18 257.13 258.27 C 255.96 252.68 254.64 247.13 253.46 241.55 C 262.96 240.77 273.27 239.43 280.23 232.21 C 283.81 227.48 287.46 222.21 287.31 216.00 C 287.46 196.67 287.31 177.33 287.38 158.00 C 288.84 146.05 280.78 134.26 269.61 130.32 C 267.58 129.68 265.47 129.29 263.49 128.52 C 261.39 127.26 259.88 125.26 258.04 123.68 C 258.19 120.21 257.16 116.36 259.30 113.30 Z" />
<path fill="#5cc9d4" opacity="1.00" d=" M 105.43 165.73 C 107.52 165.10 109.75 165.01 111.90 165.43 C 124.60 168.10 137.77 168.18 150.61 166.46 C 155.31 165.62 160.73 163.87 164.99 166.98 C 167.20 170.14 168.18 174.26 166.69 177.94 C 161.97 191.68 147.40 200.95 132.96 199.98 C 121.20 200.07 109.66 193.50 103.82 183.28 C 101.05 179.10 99.27 173.41 101.98 168.75 C 102.48 167.13 103.88 166.20 105.43 165.73 Z" />
</g>
</svg>
