<?xml version="1.0" encoding="UTF-8" ?>
<!DOCTYPE svg PUBLIC "-//W3C//DTD SVG 1.1//EN" "http://www.w3.org/Graphics/SVG/1.1/DTD/svg11.dtd">
<svg width="256pt" height="256pt" viewBox="0 0 256 256" version="1.1" xmlns="http://www.w3.org/2000/svg">
<g id="#029cffff">
<path fill="#029cff" opacity="1.00" d=" M 61.56 0.00 L 165.01 0.00 C 173.27 1.47 182.17 1.86 189.38 6.64 C 199.38 12.94 205.06 25.32 203.26 37.02 C 201.86 47.93 194.14 57.72 183.85 61.62 C 177.74 64.19 170.98 63.55 164.52 64.13 C 145.03 63.51 125.52 64.04 106.03 63.84 C 97.95 63.70 89.50 64.32 82.38 68.53 C 72.10 74.17 64.93 85.19 64.19 96.93 C 63.45 104.26 64.51 111.60 63.95 118.94 C 63.81 126.95 64.33 134.97 64.11 142.99 C 63.87 150.68 63.58 158.42 64.61 166.07 C 66.52 176.62 74.23 185.83 84.18 189.73 C 90.44 192.32 97.35 192.02 103.98 192.13 C 123.16 192.06 142.35 192.26 161.53 191.82 C 168.95 192.50 176.74 191.33 183.80 194.29 C 194.49 198.32 202.37 208.72 203.39 220.10 C 204.73 231.71 198.70 243.67 188.70 249.66 C 181.70 254.09 173.17 254.28 165.30 256.00 L 61.24 256.00 C 45.47 255.10 29.95 248.51 18.86 237.17 C 7.41 225.97 0.76 210.26 0.00 194.32 L 0.00 61.23 C 0.89 45.68 7.30 30.37 18.36 19.31 C 29.58 7.63 45.43 0.75 61.56 0.00 Z" />
</g>
<g id="#005fabff">
<path fill="#005fab" opacity="1.00" d=" M 165.01 0.00 L 193.29 0.00 C 209.56 0.49 225.68 7.16 237.12 18.81 C 248.76 30.20 255.47 46.26 256.00 62.49 L 256.00 193.45 C 255.49 209.68 248.79 225.74 237.16 237.15 C 225.75 248.80 209.67 255.48 193.42 256.00 L 165.30 256.00 C 173.17 254.28 181.70 254.09 188.70 249.66 C 198.70 243.67 204.73 231.71 203.39 220.10 C 202.37 208.72 194.49 198.32 183.80 194.29 C 176.74 191.33 168.95 192.50 161.53 191.82 C 169.07 190.59 176.33 187.21 181.72 181.73 C 188.63 175.08 192.46 165.54 192.45 155.98 C 192.49 136.32 192.45 116.66 192.47 97.00 C 192.56 89.84 190.45 82.62 186.13 76.87 C 181.06 69.88 173.02 65.34 164.52 64.13 C 170.98 63.55 177.74 64.19 183.85 61.62 C 194.14 57.72 201.86 47.93 203.26 37.02 C 205.06 25.32 199.38 12.94 189.38 6.64 C 182.17 1.86 173.27 1.47 165.01 0.00 Z" />
</g>
</svg>
