<svg xmlns="http://www.w3.org/2000/svg" xmlns:xlink="http://www.w3.org/1999/xlink" width="800" height="800"><g><svg xmlns="http://www.w3.org/2000/svg" xmlns:xlink="http://www.w3.org/1999/xlink" width="800" height="800"/><svg xmlns="http://www.w3.org/2000/svg" width="800" height="800" version="1.0" viewBox="0 0 800 800"><g fill="#f1f2f2" transform="matrix(.1 0 0 -.1 0 800)"><path d="M3780 5673c-348-15-669-51-815-93-22-6-58-15-80-19-81-16-226-84-361-169-102-64-240-196-289-277-54-88-71-131-136-335-23-71-24-89-24-330 0-258 0-260 41-385 32-97 52-145 92-210 58-94 86-134 119-170 15-17 48-55 73-85 24-30 56-64 69-75 14-11 34-29 45-41 25-25 111-84 123-84 4 0 22-12 38-26 33-29 150-99 206-125 20-10 56-34 79-55 52-48 151-167 180-219 12-21 38-64 59-94 20-31 43-69 51-85s44-59 80-96c36-36 77-81 91-100 15-19 38-48 52-65 20-22 23-32 15-42-7-9-7-18 3-30 27-35 83-83 96-83 7 0 13-4 13-10 0-5 7-10 15-10s30-13 48-30c42-36 93-40 155-10 22 11 48 20 56 20 21 0 88 39 125 72 16 15 47 36 69 47 21 11 66 38 100 60 33 23 63 41 66 41s50 26 103 58c54 31 112 63 128 71 85 38 104 50 150 97 28 28 75 67 106 87s63 43 71 50c8 8 32 24 54 34 21 11 57 30 79 43s78 43 125 68c107 56 172 92 185 101 6 4 30 14 55 21 63 20 145 64 210 113 30 23 57 44 60 48 3 3 15 12 28 21s69 61 126 115c94 92 146 158 146 185 0 5 13 38 29 72 27 56 29 73 35 216 7 182-10 409-44 575-7 33-16 83-19 110-4 28-15 67-24 89-9 21-17 47-17 58 0 31-58 143-99 190-20 24-48 59-61 78-14 19-34 45-47 57-12 13-34 40-50 60-38 52-87 96-158 145-33 23-62 45-65 48-5 6-160 82-205 100-11 4-47 20-79 36-33 15-78 31-100 36-23 4-61 12-86 17s-63 15-85 21-58 15-80 20c-22 4-67 15-100 23s-94 20-135 27c-41 6-97 15-123 20-44 9-382 11-567 3z"/></g></svg><svg xmlns="http://www.w3.org/2000/svg" width="800" height="800" version="1.0" viewBox="0 0 800 800"><g fill="#949eb6" transform="matrix(.1 0 0 -.1 0 800)"><path d="M3042 5219c-158-31-328-201-396-394-79-226-72-434 20-623 48-99 137-192 222-234 61-30 75-33 157-33 69 1 103 6 147 24 162 64 300 239 360 457 29 105 31 307 5 404-57 205-181 346-345 392-71 19-102 21-170 7zm1863-7c-113-34-179-84-248-190-144-217-152-505-23-767 75-150 171-248 294-297 45-18 76-23 147-23 79 0 97 4 148 29 181 88 293 286 304 536 6 127-12 230-62 351-107 265-352 423-560 361zM2680 3852c-91-40-117-133-57-197 34-38 86-54 324-100 137-27 197-4 224 86 11 37 11 45-7 77-25 47-78 76-167 92-40 6-108 21-152 31-82 19-138 23-165 11zm2560-17c-52-12-120-28-150-34-31-6-70-20-88-31-40-25-66-81-57-126 6-37 61-90 101-100 28-7 157 14 319 52 87 20 104 28 133 59 55 60 40 140-36 183-50 28-97 27-222-3zm-775-196c-230-45-544-46-800-3-116 20-161 15-206-23-101-85-70-235 84-416 96-113 234-190 396-223 235-47 496 49 654 241 166 201 168 382 6 429-37 10-58 10-134-5z"/></g></svg><svg xmlns="http://www.w3.org/2000/svg" width="800" height="800" version="1.0" viewBox="0 0 800 800"><g fill="#dd6d6d" transform="matrix(.1 0 0 -.1 0 800)"><path d="M3015 5206c-99-31-210-116-275-212-160-231-187-553-66-799 42-85 138-185 211-220 238-117 518 43 635 362 39 109 63 259 54 342-20 200-95 355-221 457-89 73-234 103-338 70zm1864-9c-176-61-295-240-329-494-17-130 17-308 85-443 140-277 382-392 601-285 200 98 325 397 280 666-35 203-97 328-223 451-119 116-272 155-414 105zM2675 3846c-54-24-80-62-80-116 0-93 34-110 335-170 89-18 111-20 148-9 60 17 92 57 92 119 0 43-4 51-39 83-24 22-55 38-78 42-21 4-98 20-171 36-149 33-165 34-207 15zm2575-11c-58-14-134-32-170-40-135-32-180-149-85-223 41-33 81-35 195-12 220 44 277 60 304 89 52 54 44 129-18 176-49 37-99 39-226 10zm-1757-206c-57-28-87-78-87-145 0-133 169-355 334-437 220-110 474-101 681 24 147 88 299 299 299 415 0 64-57 137-121 154-30 8-63 6-156-12-103-19-151-22-383-22-229 0-281 3-383 22-144 27-133 27-184 1z"/></g></svg><svg xmlns="http://www.w3.org/2000/svg" width="800" height="800" version="1.0" viewBox="0 0 800 800"><g fill="#032a6d" transform="matrix(.1 0 0 -.1 0 800)"><path d="M3015 5206c-99-31-210-116-275-212-160-231-187-553-66-799 42-85 138-185 211-220 238-117 518 43 635 362 39 109 63 259 54 342-20 200-95 355-221 457-89 73-234 103-338 70zm1864-9c-176-61-295-240-329-494-17-130 17-308 85-443 140-277 382-392 601-285 200 98 325 397 280 666-35 203-97 328-223 451-119 116-272 155-414 105zM3493 3629c-57-28-87-78-87-145 0-133 169-355 334-437 220-110 474-101 681 24 147 88 299 299 299 415 0 64-57 137-121 154-30 8-63 6-156-12-103-19-151-22-383-22-229 0-281 3-383 22-144 27-133 27-184 1z"/></g></svg></g></svg>