<?xml version="1.0" encoding="UTF-8" ?>
<!DOCTYPE svg PUBLIC "-//W3C//DTD SVG 1.1//EN" "http://www.w3.org/Graphics/SVG/1.1/DTD/svg11.dtd">
<svg width="870pt" height="698pt" viewBox="0 0 870 698" version="1.1" xmlns="http://www.w3.org/2000/svg">
<g id="#042b6bff">
<path fill="#042b6b" opacity="1.00" d=" M 386.08 270.93 C 393.74 270.08 401.12 274.56 405.16 280.90 C 413.95 294.30 412.07 313.01 402.47 325.49 C 397.98 331.49 390.72 335.90 383.04 335.30 C 375.84 334.85 369.78 329.73 366.24 323.73 C 359.34 311.47 360.47 295.61 367.78 283.79 C 371.87 277.37 378.21 271.69 386.08 270.93 Z" />
<path fill="#042b6b" opacity="1.00" d=" M 480.03 270.95 C 485.46 270.33 491.04 272.33 495.21 275.79 C 508.30 286.82 512.06 307.17 504.49 322.40 C 500.94 329.35 494.05 335.26 485.94 335.38 C 478.34 335.47 471.40 330.93 467.08 324.90 C 458.00 312.59 456.24 294.59 464.50 281.41 C 467.92 275.95 473.48 271.67 480.03 270.95 Z" />
<path fill="#042b6b" opacity="1.00" d=" M 406.28 350.49 C 410.11 348.50 414.28 350.39 418.23 350.87 C 431.44 352.64 444.97 352.44 458.05 349.74 C 461.27 349.08 465.11 350.33 466.71 353.37 C 468.42 355.97 468.17 359.31 467.08 362.10 C 462.48 373.62 451.30 382.18 438.95 383.47 C 423.52 385.53 407.48 375.64 402.53 360.88 C 401.17 357.12 402.63 352.34 406.28 350.49 Z" />
</g>
<g id="#f2f2f2ff">
<path fill="#f2f2f2" opacity="1.00" d=" M 340.69 175.90 C 343.50 170.86 347.04 165.38 352.85 163.57 C 358.42 162.44 363.00 166.76 365.91 170.97 C 369.34 177.01 373.21 182.90 378.18 187.80 C 381.71 191.36 386.55 193.04 390.84 195.46 C 392.82 195.47 394.74 194.93 396.63 194.36 C 421.77 189.24 447.94 189.24 473.10 194.30 C 475.07 194.87 477.07 195.48 479.16 195.46 C 483.45 193.05 488.27 191.36 491.81 187.81 C 496.79 182.90 500.66 177.00 504.10 170.95 C 507.00 166.77 511.54 162.47 517.09 163.56 C 522.92 165.32 526.48 170.82 529.28 175.86 C 530.11 178.25 531.19 180.54 532.22 182.85 C 535.48 190.23 536.22 198.33 538.09 206.10 C 539.49 213.83 541.61 221.41 543.42 229.05 C 543.70 230.67 545.12 231.70 546.14 232.87 C 560.67 247.39 570.77 266.13 575.42 286.11 C 580.18 305.38 578.87 325.37 577.90 344.98 C 577.70 360.04 577.10 375.21 573.98 389.98 C 571.94 398.62 569.00 407.97 561.60 413.54 C 558.03 416.43 552.81 416.46 548.99 414.05 C 543.96 410.94 541.13 405.52 538.50 400.44 C 533.42 390.46 522.28 383.59 511.00 384.37 C 505.19 384.70 499.33 386.96 495.38 391.35 C 486.73 400.23 485.17 416.49 494.65 425.36 C 502.57 432.73 515.70 433.77 524.62 427.64 C 527.06 426.12 528.23 423.30 530.58 421.69 C 529.77 428.76 524.19 434.69 517.44 436.57 C 515.61 437.08 513.70 437.45 512.21 438.71 C 518.58 451.42 530.78 461.30 544.84 463.95 C 552.98 465.81 561.33 464.16 569.21 461.95 C 567.37 487.65 565.59 513.35 563.76 539.04 C 563.45 549.55 560.29 559.88 555.06 568.97 C 552.86 572.67 550.14 576.24 546.41 578.49 C 543.54 580.22 539.56 580.29 536.90 578.12 C 531.62 574.27 529.93 567.61 526.88 562.17 C 523.72 556.59 519.94 550.73 513.81 548.12 C 508.64 546.14 502.67 548.09 498.91 551.95 C 493.93 556.63 491.52 563.18 487.68 568.69 C 483.85 574.35 479.61 580.15 473.49 583.48 C 468.90 586.18 463.02 583.92 460.25 579.69 C 455.74 573.27 452.49 565.75 446.27 560.68 C 442.31 557.60 437.38 553.77 432.07 555.61 C 425.63 558.09 420.45 563.08 416.68 568.76 C 413.43 573.19 411.51 578.61 407.30 582.29 C 404.25 585.07 399.38 585.38 395.93 583.17 C 390.11 579.74 385.99 574.15 382.29 568.64 C 378.34 562.95 375.86 556.16 370.58 551.46 C 366.83 547.91 361.10 546.23 356.16 548.13 C 350.07 550.74 346.30 556.55 343.16 562.10 C 340.08 567.56 338.40 574.24 333.11 578.11 C 330.24 580.45 325.93 580.17 322.98 578.12 C 319.40 575.71 316.76 572.15 314.63 568.44 C 310.28 560.65 307.34 551.99 306.52 543.08 C 304.59 516.05 302.76 489.01 300.78 461.98 C 305.23 462.59 309.40 464.66 313.98 464.58 C 332.15 466.22 349.85 454.79 357.79 438.71 C 356.28 437.44 354.34 437.07 352.50 436.56 C 345.78 434.67 340.24 428.75 339.42 421.71 C 341.77 423.31 342.94 426.11 345.37 427.63 C 355.05 434.31 369.87 432.51 377.28 423.23 C 387.07 410.86 380.15 389.61 364.91 385.41 C 354.85 382.24 343.60 386.02 336.44 393.48 C 330.96 399.00 329.33 407.29 323.29 412.36 C 319.86 415.53 314.42 417.04 310.17 414.63 C 303.65 410.99 300.14 403.84 297.93 397.01 C 293.69 383.44 292.98 369.11 292.27 355.00 C 292.22 336.31 289.75 317.53 292.30 298.91 C 295.23 274.48 306.01 250.89 323.38 233.36 C 324.40 232.20 325.72 231.20 326.36 229.78 C 329.02 219.59 331.39 209.33 333.42 199.01 C 334.32 193.51 335.60 188.05 337.75 182.89 C 338.80 180.59 339.85 178.29 340.69 175.90 M 386.08 270.93 C 378.21 271.69 371.87 277.37 367.78 283.79 C 360.47 295.61 359.34 311.47 366.24 323.73 C 369.78 329.73 375.84 334.85 383.04 335.30 C 390.72 335.90 397.98 331.49 402.47 325.49 C 412.07 313.01 413.95 294.30 405.16 280.90 C 401.12 274.56 393.74 270.08 386.08 270.93 M 480.03 270.95 C 473.48 271.67 467.92 275.95 464.50 281.41 C 456.24 294.59 458.00 312.59 467.08 324.90 C 471.40 330.93 478.34 335.47 485.94 335.38 C 494.05 335.26 500.94 329.35 504.49 322.40 C 512.06 307.17 508.30 286.82 495.21 275.79 C 491.04 272.33 485.46 270.33 480.03 270.95 M 365.47 339.64 C 360.44 341.21 360.11 349.00 365.04 350.94 C 371.22 352.73 377.58 354.33 384.02 354.80 C 387.77 355.24 391.56 351.86 390.69 347.97 C 390.73 343.46 385.51 342.18 381.95 341.56 C 376.47 340.93 371.03 338.08 365.47 339.64 M 497.41 339.56 C 492.38 341.02 486.96 341.18 482.17 343.37 C 477.40 345.70 478.64 354.03 484.02 354.64 C 490.70 355.14 497.18 352.78 503.64 351.41 C 507.61 350.64 510.02 345.64 507.64 342.19 C 505.57 338.69 500.89 338.83 497.41 339.56 M 406.28 350.49 C 402.63 352.34 401.17 357.12 402.53 360.88 C 407.48 375.64 423.52 385.53 438.95 383.47 C 451.30 382.18 462.48 373.62 467.08 362.10 C 468.17 359.31 468.42 355.97 466.71 353.37 C 465.11 350.33 461.27 349.08 458.05 349.74 C 444.97 352.44 431.44 352.64 418.23 350.87 C 414.28 350.39 410.11 348.50 406.28 350.49 Z" />
</g>
<g id="#d76f71ff">
<path fill="#d76f71" opacity="1.00" d=" M 365.47 339.64 C 371.03 338.08 376.47 340.93 381.95 341.56 C 385.51 342.18 390.73 343.46 390.69 347.97 C 391.56 351.86 387.77 355.24 384.02 354.80 C 377.58 354.33 371.22 352.73 365.04 350.94 C 360.11 349.00 360.44 341.21 365.47 339.64 Z" />
<path fill="#d76f71" opacity="1.00" d=" M 497.41 339.56 C 500.89 338.83 505.57 338.69 507.64 342.19 C 510.02 345.64 507.61 350.64 503.64 351.41 C 497.18 352.78 490.70 355.14 484.02 354.64 C 478.64 354.03 477.40 345.70 482.17 343.37 C 486.96 341.18 492.38 341.02 497.41 339.56 Z" />
</g>
</svg>
