<?xml version="1.0" encoding="UTF-8" ?>
<!DOCTYPE svg PUBLIC "-//W3C//DTD SVG 1.1//EN" "http://www.w3.org/Graphics/SVG/1.1/DTD/svg11.dtd">
<svg width="870pt" height="698pt" viewBox="0 0 870 698" version="1.1" xmlns="http://www.w3.org/2000/svg">
<g id="#042b6bff">
<path fill="#042b6b" opacity="1.00" d=" M 0.00 0.00 L 870.00 0.00 L 870.00 698.00 L 0.00 698.00 L 0.00 0.00 M 340.69 175.92 C 339.88 178.31 338.78 180.59 337.75 182.89 C 336.23 186.65 335.03 190.52 334.27 194.51 C 332.00 206.51 329.41 218.48 326.17 230.25 C 323.16 233.84 319.61 236.97 316.78 240.73 C 302.97 257.48 294.61 278.44 292.17 299.95 C 290.31 314.57 291.42 329.34 292.06 344.00 C 292.33 359.85 292.83 375.85 296.34 391.38 C 298.46 399.77 301.57 408.87 309.05 413.98 C 313.40 417.16 319.59 415.89 323.32 412.33 C 329.17 407.41 330.85 399.46 335.99 393.98 C 343.09 386.21 354.57 382.19 364.83 385.39 C 379.87 389.47 386.89 410.15 377.72 422.65 C 370.24 432.78 354.03 434.63 344.28 426.79 C 342.39 425.38 341.58 422.85 339.38 421.85 C 340.52 430.83 348.90 436.75 357.40 437.87 C 357.26 441.11 354.84 443.58 353.13 446.15 C 343.02 459.95 324.75 467.72 307.87 463.73 C 305.53 463.05 303.21 462.23 300.77 462.02 C 302.82 489.36 304.60 516.73 306.61 544.07 C 307.71 553.54 311.01 562.75 316.08 570.82 C 318.73 574.63 322.08 578.79 326.91 579.67 C 331.44 580.51 335.18 576.95 337.40 573.42 C 340.69 567.94 342.70 561.75 346.58 556.61 C 349.86 551.85 354.80 547.02 361.03 547.37 C 367.66 547.50 372.68 552.77 375.95 558.04 C 380.84 566.47 385.67 575.35 393.43 581.52 C 396.56 584.12 400.96 585.66 404.87 583.86 C 409.54 581.57 411.81 576.57 414.38 572.33 C 419.00 564.42 425.75 556.91 435.01 554.72 C 442.71 556.58 448.96 562.19 453.25 568.67 C 456.54 573.13 458.47 578.61 462.73 582.32 C 465.76 585.06 470.59 585.37 474.03 583.20 C 480.05 579.65 484.26 573.82 488.06 568.11 C 491.60 562.93 493.90 556.87 498.44 552.42 C 502.20 548.27 508.41 546.05 513.81 548.11 C 519.95 550.73 523.73 556.59 526.88 562.18 C 529.93 567.60 531.60 574.23 536.85 578.08 C 539.52 580.29 543.54 580.23 546.43 578.48 C 549.92 576.37 552.52 573.08 554.65 569.66 C 560.14 560.41 563.44 549.80 563.76 539.01 C 565.58 513.21 567.42 487.41 569.21 461.60 C 561.51 464.50 553.01 465.65 544.90 463.96 C 530.84 461.33 518.61 451.47 512.24 438.76 C 513.82 437.15 516.15 437.06 518.17 436.37 C 524.56 434.28 529.65 428.59 530.63 421.87 C 530.23 422.14 529.45 422.67 529.06 422.94 C 521.17 434.66 502.07 434.16 493.20 423.84 C 485.32 414.65 487.25 399.84 495.32 391.41 C 501.18 384.91 510.83 383.11 519.11 385.05 C 527.32 387.22 534.66 392.81 538.50 400.45 C 541.50 406.25 544.96 412.86 551.51 415.20 C 555.57 416.81 560.07 415.22 563.12 412.34 C 570.28 405.66 572.84 395.72 574.70 386.45 C 577.06 373.09 577.76 359.49 577.87 345.95 C 578.46 331.35 579.63 316.66 578.08 302.09 C 575.66 276.75 564.95 252.07 547.07 233.81 C 545.91 232.51 544.42 231.40 543.64 229.82 C 542.16 224.17 540.86 218.47 539.45 212.80 C 536.98 202.84 536.19 192.41 532.22 182.85 C 531.20 180.54 530.10 178.26 529.28 175.87 C 526.50 170.81 522.89 165.32 517.08 163.57 C 511.50 162.47 506.96 166.82 504.05 171.02 C 500.64 177.07 496.74 182.94 491.77 187.85 C 488.26 191.36 483.47 193.02 479.24 195.43 C 475.05 195.43 471.20 193.32 467.00 193.21 C 443.95 189.20 420.22 189.76 397.27 194.18 C 395.13 194.77 393.02 195.57 390.76 195.43 C 386.52 193.02 381.72 191.37 378.21 187.84 C 373.26 182.94 369.36 177.09 365.96 171.04 C 363.05 166.83 358.50 162.47 352.92 163.57 C 347.07 165.32 343.49 170.85 340.69 175.92 Z" />
<path fill="#042b6b" opacity="1.00" d=" M 386.10 270.94 C 393.50 270.13 400.71 274.28 404.77 280.34 C 413.10 292.32 412.37 308.92 405.30 321.31 C 401.80 327.29 396.55 332.76 389.66 334.58 C 383.68 336.50 376.91 334.85 372.21 330.77 C 364.41 324.40 361.37 313.83 361.64 304.08 C 362.16 294.41 365.62 284.54 372.70 277.71 C 376.22 274.00 381.01 271.49 386.10 270.94 Z" />
<path fill="#042b6b" opacity="1.00" d=" M 480.06 270.94 C 485.21 270.37 490.47 272.16 494.58 275.26 C 508.55 286.47 512.44 308.16 503.77 323.72 C 500.22 329.74 494.13 334.87 486.91 335.31 C 479.25 335.88 472.01 331.47 467.53 325.49 C 462.02 318.57 459.50 309.70 459.13 300.97 C 459.17 291.42 462.46 281.30 470.09 275.13 C 472.88 272.72 476.47 271.54 480.06 270.94 Z" />
<path fill="#042b6b" opacity="1.00" d=" M 406.30 350.48 C 410.11 348.51 414.25 350.38 418.17 350.87 C 431.40 352.63 444.94 352.45 458.03 349.73 C 461.50 349.00 465.55 350.56 467.02 353.93 C 468.93 357.39 467.58 361.51 465.88 364.76 C 460.70 374.96 450.30 382.29 438.90 383.48 C 423.50 385.51 407.52 375.65 402.54 360.94 C 401.15 357.16 402.62 352.33 406.30 350.48 Z" />
</g>
<g id="#f2f2f2ff">
<path fill="#f2f2f2" opacity="1.00" d=" M 340.69 175.92 C 343.49 170.85 347.07 165.32 352.92 163.57 C 358.50 162.47 363.05 166.83 365.96 171.04 C 369.36 177.09 373.26 182.94 378.21 187.84 C 381.72 191.37 386.52 193.02 390.76 195.43 C 393.02 195.57 395.13 194.77 397.27 194.18 C 420.22 189.76 443.95 189.20 467.00 193.21 C 471.20 193.32 475.05 195.43 479.24 195.43 C 483.47 193.02 488.26 191.36 491.77 187.85 C 496.74 182.94 500.64 177.07 504.05 171.02 C 506.96 166.82 511.50 162.47 517.08 163.57 C 522.89 165.32 526.50 170.81 529.28 175.87 C 530.10 178.26 531.20 180.54 532.22 182.85 C 536.19 192.41 536.98 202.84 539.45 212.80 C 540.86 218.47 542.16 224.17 543.64 229.82 C 544.42 231.40 545.91 232.51 547.07 233.81 C 564.95 252.07 575.66 276.75 578.08 302.09 C 579.63 316.66 578.46 331.35 577.87 345.95 C 577.76 359.49 577.06 373.09 574.70 386.45 C 572.84 395.72 570.28 405.66 563.12 412.34 C 560.07 415.22 555.57 416.81 551.51 415.20 C 544.96 412.86 541.50 406.25 538.50 400.45 C 534.66 392.81 527.32 387.22 519.11 385.05 C 510.83 383.11 501.18 384.91 495.32 391.41 C 487.25 399.84 485.32 414.65 493.20 423.84 C 502.07 434.16 521.17 434.66 529.06 422.94 C 529.45 422.67 530.23 422.14 530.63 421.87 C 529.65 428.59 524.56 434.28 518.17 436.37 C 516.15 437.06 513.82 437.15 512.24 438.76 C 518.61 451.47 530.84 461.33 544.90 463.96 C 553.01 465.65 561.51 464.50 569.21 461.60 C 567.42 487.41 565.58 513.21 563.76 539.01 C 563.44 549.80 560.14 560.41 554.65 569.66 C 552.52 573.08 549.92 576.37 546.43 578.48 C 543.54 580.23 539.52 580.29 536.85 578.08 C 531.60 574.23 529.93 567.60 526.88 562.18 C 523.73 556.59 519.95 550.73 513.81 548.11 C 508.41 546.05 502.20 548.27 498.44 552.42 C 493.90 556.87 491.60 562.93 488.06 568.11 C 484.26 573.82 480.05 579.65 474.03 583.20 C 470.59 585.37 465.76 585.06 462.73 582.32 C 458.47 578.61 456.54 573.13 453.25 568.67 C 448.96 562.19 442.71 556.58 435.01 554.72 C 425.75 556.91 419.00 564.42 414.38 572.33 C 411.81 576.57 409.54 581.57 404.87 583.86 C 400.96 585.66 396.56 584.12 393.43 581.52 C 385.67 575.35 380.84 566.47 375.95 558.04 C 372.68 552.77 367.66 547.50 361.03 547.37 C 354.80 547.02 349.86 551.85 346.58 556.61 C 342.70 561.75 340.69 567.94 337.40 573.42 C 335.18 576.95 331.44 580.51 326.91 579.67 C 322.08 578.79 318.73 574.63 316.08 570.82 C 311.01 562.75 307.71 553.54 306.61 544.07 C 304.60 516.73 302.82 489.36 300.77 462.02 C 303.21 462.23 305.53 463.05 307.87 463.73 C 324.75 467.72 343.02 459.95 353.13 446.15 C 354.84 443.58 357.26 441.11 357.40 437.87 C 348.90 436.75 340.52 430.83 339.38 421.85 C 341.58 422.85 342.39 425.38 344.28 426.79 C 354.03 434.63 370.24 432.78 377.72 422.65 C 386.89 410.15 379.87 389.47 364.83 385.39 C 354.57 382.19 343.09 386.21 335.99 393.98 C 330.85 399.46 329.17 407.41 323.32 412.33 C 319.59 415.89 313.40 417.16 309.05 413.98 C 301.57 408.87 298.46 399.77 296.34 391.38 C 292.83 375.85 292.33 359.85 292.06 344.00 C 291.42 329.34 290.31 314.57 292.17 299.95 C 294.61 278.44 302.97 257.48 316.78 240.73 C 319.61 236.97 323.16 233.84 326.17 230.25 C 329.41 218.48 332.00 206.51 334.27 194.51 C 335.03 190.52 336.23 186.65 337.75 182.89 C 338.78 180.59 339.88 178.31 340.69 175.92 M 386.10 270.94 C 381.01 271.49 376.22 274.00 372.70 277.71 C 365.62 284.54 362.16 294.41 361.64 304.08 C 361.37 313.83 364.41 324.40 372.21 330.77 C 376.91 334.85 383.68 336.50 389.66 334.58 C 396.55 332.76 401.80 327.29 405.30 321.31 C 412.37 308.92 413.10 292.32 404.77 280.34 C 400.71 274.28 393.50 270.13 386.10 270.94 M 480.06 270.94 C 476.47 271.54 472.88 272.72 470.09 275.13 C 462.46 281.30 459.17 291.42 459.13 300.97 C 459.50 309.70 462.02 318.57 467.53 325.49 C 472.01 331.47 479.25 335.88 486.91 335.31 C 494.13 334.87 500.22 329.74 503.77 323.72 C 512.44 308.16 508.55 286.47 494.58 275.26 C 490.47 272.16 485.21 270.37 480.06 270.94 M 365.51 339.63 C 360.40 341.19 360.11 349.11 365.14 350.99 C 370.27 352.55 375.57 353.63 380.85 354.54 C 383.59 354.87 387.01 355.31 389.05 352.99 C 391.26 351.35 390.88 348.17 390.32 345.82 C 388.19 342.28 383.68 341.96 380.04 341.20 C 375.24 340.48 370.40 338.17 365.51 339.63 M 497.42 339.55 C 492.38 341.05 486.93 341.16 482.13 343.39 C 477.39 345.76 478.66 354.06 484.04 354.64 C 490.72 355.15 497.21 352.76 503.67 351.40 C 507.66 350.61 510.03 345.55 507.59 342.13 C 505.51 338.68 500.87 338.85 497.42 339.55 M 406.30 350.48 C 402.62 352.33 401.15 357.16 402.54 360.94 C 407.52 375.65 423.50 385.51 438.90 383.48 C 450.30 382.29 460.70 374.96 465.88 364.76 C 467.58 361.51 468.93 357.39 467.02 353.93 C 465.55 350.56 461.50 349.00 458.03 349.73 C 444.94 352.45 431.40 352.63 418.17 350.87 C 414.25 350.38 410.11 348.51 406.30 350.48 Z" />
</g>
<g id="#d76f71ff">
<path fill="#d76f71" opacity="1.00" d=" M 365.51 339.63 C 370.40 338.17 375.24 340.48 380.04 341.20 C 383.68 341.96 388.19 342.28 390.32 345.82 C 390.88 348.17 391.26 351.35 389.05 352.99 C 387.01 355.31 383.59 354.87 380.85 354.54 C 375.57 353.63 370.27 352.55 365.14 350.99 C 360.11 349.11 360.40 341.19 365.51 339.63 Z" />
<path fill="#d76f71" opacity="1.00" d=" M 497.42 339.55 C 500.87 338.85 505.51 338.68 507.59 342.13 C 510.03 345.55 507.66 350.61 503.67 351.40 C 497.21 352.76 490.72 355.15 484.04 354.64 C 478.66 354.06 477.39 345.76 482.13 343.39 C 486.93 341.16 492.38 341.05 497.42 339.55 Z" />
</g>
</svg>
