<?xml version="1.0" encoding="UTF-8" ?>
<!DOCTYPE svg PUBLIC "-//W3C//DTD SVG 1.1//EN" "http://www.w3.org/Graphics/SVG/1.1/DTD/svg11.dtd">
<svg width="333pt" height="333pt" viewBox="0 0 333 333" version="1.1" xmlns="http://www.w3.org/2000/svg">
<g id="#de57a5ff">
<path fill="#de57a5" opacity="1.00" d=" M 251.09 41.12 C 256.54 24.13 278.05 15.12 294.01 22.98 C 309.75 29.32 317.46 49.82 310.02 65.01 C 304.90 77.56 290.75 85.36 277.39 83.39 C 273.35 83.32 267.96 80.47 265.02 85.01 C 251.29 97.25 239.16 111.19 225.20 123.20 C 223.47 124.67 221.41 125.21 218.99 124.80 C 208.34 125.39 197.66 125.03 187.01 124.99 C 186.99 118.02 186.99 111.05 187.00 104.08 C 195.60 104.06 204.24 104.45 212.82 103.65 C 226.50 92.11 238.99 79.12 251.92 66.71 C 250.03 58.35 247.42 49.41 251.09 41.12 M 279.31 42.27 C 272.54 43.39 268.01 53.38 273.71 58.29 C 277.72 64.25 287.47 62.19 289.88 55.85 C 293.66 49.31 286.28 40.85 279.31 42.27 Z" />
<path fill="#de57a5" opacity="1.00" d=" M 97.61 42.67 C 108.75 40.82 120.17 40.43 131.40 41.63 C 140.84 42.58 148.84 48.28 156.07 53.97 C 162.15 49.54 168.21 44.54 175.67 42.67 C 186.57 40.10 197.90 41.18 209.00 40.95 C 209.00 48.26 209.00 55.57 209.00 62.88 C 200.43 62.95 191.84 62.64 183.31 63.46 C 176.03 65.23 169.22 71.11 167.71 78.65 C 166.55 88.72 166.98 98.89 166.93 109.00 C 167.27 155.67 166.63 202.34 167.17 249.00 C 166.69 257.73 172.88 266.23 181.08 268.91 C 190.24 270.70 199.71 269.84 208.99 270.12 C 208.99 277.43 209.00 284.74 209.00 292.06 C 197.39 291.53 185.34 293.66 174.10 289.89 C 167.35 287.67 161.73 283.09 155.89 279.21 C 148.50 285.00 140.26 290.70 130.60 291.48 C 115.61 292.66 100.03 292.46 85.69 287.39 C 59.24 279.37 37.17 258.64 27.01 232.98 C 18.75 212.74 20.08 190.38 19.94 169.00 C 20.30 145.95 17.81 121.83 27.02 100.02 C 38.65 70.48 66.19 47.75 97.61 42.67 M 66.90 80.89 C 54.30 92.06 46.22 107.55 42.89 123.96 C 54.11 124.03 65.37 124.56 76.56 123.45 C 79.33 122.44 81.27 119.87 82.18 117.15 C 84.15 109.30 82.63 100.99 83.13 93.00 C 90.45 92.99 97.76 92.99 105.08 93.00 C 104.46 106.52 107.02 121.78 98.49 133.46 C 92.48 141.61 82.23 146.75 72.02 146.03 C 62.02 146.23 52.01 146.04 42.00 146.00 C 42.00 159.65 42.00 173.31 42.00 186.97 C 49.00 186.99 56.00 187.00 63.00 187.03 C 63.01 194.33 63.01 201.63 63.00 208.94 C 56.29 208.98 49.59 209.03 42.88 209.10 C 45.59 220.53 49.55 231.78 56.81 241.19 C 71.30 259.99 95.20 271.53 119.02 270.11 C 129.96 271.53 142.64 265.51 144.53 253.79 C 145.71 238.86 144.85 223.88 144.97 208.93 C 137.11 208.96 129.22 208.76 121.39 209.49 C 117.42 210.09 115.94 214.64 115.17 218.01 C 114.54 225.31 114.97 232.67 114.89 240.00 C 107.55 240.00 100.21 240.01 92.88 240.00 C 93.10 230.32 92.30 220.53 94.02 210.96 C 96.62 198.68 107.53 188.57 120.11 187.41 C 128.38 186.69 136.70 186.91 145.00 186.88 C 145.00 173.26 145.00 159.65 145.00 146.03 C 138.00 146.01 131.00 145.99 124.00 145.97 C 124.00 138.66 124.00 131.34 124.01 124.03 C 130.99 124.01 137.98 123.99 144.98 123.97 C 144.82 108.79 145.79 93.57 144.40 78.43 C 142.81 73.44 140.00 68.26 134.97 66.04 C 127.87 61.32 119.00 63.08 111.02 63.15 C 94.81 63.72 79.32 70.70 66.90 80.89 Z" />
<path fill="#de57a5" opacity="1.00" d=" M 263.17 140.16 C 275.30 131.59 293.57 133.49 303.82 144.17 C 314.59 154.57 315.77 172.98 306.88 184.93 C 298.08 198.03 278.46 202.24 265.07 193.87 C 258.14 190.47 254.06 183.72 250.63 177.13 C 229.42 176.94 208.21 176.98 187.00 177.01 C 186.99 170.00 186.99 162.99 187.00 155.99 C 208.20 156.03 229.40 156.04 250.59 155.92 C 253.82 150.00 257.40 143.92 263.17 140.16 M 277.39 157.35 C 271.74 159.11 268.87 167.33 272.97 172.01 C 276.45 178.64 287.81 177.04 290.06 170.03 C 293.92 162.89 284.78 153.94 277.39 157.35 Z" />
<path fill="#de57a5" opacity="1.00" d=" M 187.00 208.02 C 198.94 208.04 210.91 207.42 222.82 208.32 C 227.54 211.44 231.30 215.75 235.32 219.68 C 245.82 230.49 256.61 241.01 267.20 251.74 C 275.01 249.94 283.33 247.60 291.12 250.82 C 307.71 255.72 317.31 275.88 310.90 291.87 C 305.69 308.05 285.84 317.18 270.13 310.90 C 258.90 307.14 250.52 296.36 249.49 284.59 C 248.33 278.64 250.42 272.89 251.79 267.20 C 238.98 255.06 227.22 241.79 214.12 229.99 C 205.31 228.20 196.01 229.14 187.00 228.92 C 186.99 221.95 186.99 214.98 187.00 208.02 M 278.35 271.30 C 271.80 273.32 268.57 282.33 273.73 287.28 C 277.97 293.05 287.34 291.39 289.88 284.85 C 293.79 277.87 285.71 269.46 278.35 271.30 Z" />
</g>
</svg>
