<?xml version="1.0" encoding="UTF-8" ?>
<!DOCTYPE svg PUBLIC "-//W3C//DTD SVG 1.1//EN" "http://www.w3.org/Graphics/SVG/1.1/DTD/svg11.dtd">
<svg width="333pt" height="333pt" viewBox="0 0 333 333" version="1.1" xmlns="http://www.w3.org/2000/svg">
<g id="#d76f71ff">
<path fill="#d76f71" opacity="1.00" d=" M 192.04 86.98 C 201.42 86.99 210.80 87.01 220.19 87.04 C 198.84 139.92 177.79 192.92 156.75 245.92 C 147.43 245.97 138.11 245.99 128.79 245.97 C 149.53 192.84 170.86 139.94 192.04 86.98 Z" />
<path fill="#d76f71" opacity="1.00" d=" M 3.02 94.96 C 13.26 95.00 23.49 95.04 33.73 95.13 C 53.03 125.12 73.27 154.49 92.72 184.39 C 93.35 154.59 92.82 124.78 93.01 94.98 C 103.00 95.01 112.99 95.01 122.98 94.99 C 123.02 140.00 123.02 185.01 122.98 230.02 C 112.36 230.00 101.75 229.99 91.13 229.96 C 71.36 198.73 50.37 168.27 31.06 136.74 C 32.54 167.81 31.91 198.92 31.99 230.02 C 22.33 230.00 12.67 229.97 3.01 230.01 C 2.99 184.99 2.98 139.97 3.02 94.96 Z" />
<path fill="#d76f71" opacity="1.00" d=" M 250.00 95.92 C 262.10 95.99 274.21 96.07 286.32 96.35 C 302.09 139.69 316.81 183.42 333.00 226.61 L 333.00 230.09 C 321.86 230.00 310.73 229.88 299.60 229.64 C 296.93 221.13 294.06 212.67 291.65 204.08 C 275.58 203.92 259.50 203.90 243.43 204.15 C 240.61 212.77 237.69 221.36 234.77 229.94 C 223.48 229.98 212.18 230.01 200.89 229.99 C 217.53 185.40 233.33 140.50 250.00 95.92 M 251.05 175.98 C 261.64 176.01 272.24 176.03 282.84 176.04 C 277.87 158.94 271.61 142.18 267.42 124.87 C 262.03 141.93 256.96 159.09 251.05 175.98 Z" />
</g>
</svg>
