<?xml version="1.0" encoding="UTF-8" ?>
<!DOCTYPE svg PUBLIC "-//W3C//DTD SVG 1.1//EN" "http://www.w3.org/Graphics/SVG/1.1/DTD/svg11.dtd">
<svg width="333pt" height="333pt" viewBox="0 0 333 333" version="1.1" xmlns="http://www.w3.org/2000/svg">
<g id="#7375e3ff">
<path fill="#7375e3" opacity="1.00" d=" M 71.78 16.91 C 113.52 17.30 155.28 16.60 197.01 17.16 C 201.65 16.12 206.09 19.59 207.00 23.96 C 208.12 29.40 207.97 35.01 208.48 40.51 C 215.82 41.88 226.61 39.01 231.31 46.72 C 234.07 52.51 232.40 59.46 233.26 65.65 C 239.08 66.28 245.24 65.31 250.90 67.11 C 254.35 68.45 257.04 71.70 257.45 75.41 C 258.64 88.74 257.89 102.14 258.05 115.51 C 264.61 116.13 274.74 115.70 277.23 123.68 C 278.89 137.68 277.80 151.86 278.00 165.94 C 287.96 165.95 297.93 165.63 307.88 166.30 C 311.59 166.76 314.57 169.52 316.81 172.34 C 316.96 177.24 316.59 182.25 314.93 186.90 C 300.48 226.87 286.41 266.96 272.01 306.94 C 270.77 310.10 269.62 313.66 266.67 315.65 C 263.21 317.70 258.78 316.35 255.03 317.03 C 176.42 316.92 97.80 317.14 19.18 316.90 C 18.50 316.18 17.82 315.47 17.14 314.76 C 16.72 249.29 17.28 183.83 16.85 118.37 C 32.72 113.70 49.70 116.76 65.99 116.02 C 66.18 87.67 65.73 59.31 66.04 30.96 C 64.89 25.29 68.90 21.12 71.78 16.91 M 78.01 28.01 C 77.99 74.00 78.00 120.00 78.01 166.00 C 82.33 166.00 86.66 166.00 90.99 166.00 C 91.09 130.32 90.88 94.64 90.98 58.97 C 91.43 54.33 90.29 48.63 93.98 44.99 C 98.18 40.22 105.40 41.53 110.97 40.99 C 139.31 40.84 167.65 41.12 196.00 40.99 C 196.00 36.66 196.00 32.33 196.00 28.01 C 156.67 27.99 117.34 28.00 78.01 28.01 M 103.01 53.01 C 102.99 90.67 102.99 128.33 103.01 166.00 C 107.33 166.01 111.66 166.00 115.99 166.00 C 116.12 138.99 115.83 111.98 115.98 84.97 C 116.43 79.84 115.31 73.44 119.48 69.48 C 123.73 65.06 130.51 66.29 135.98 65.93 C 164.32 65.93 192.66 66.07 221.00 65.99 C 221.00 61.66 221.00 57.33 221.00 53.01 C 181.67 52.99 142.34 53.00 103.01 53.01 M 128.01 78.00 C 127.99 107.33 128.00 136.66 128.00 165.98 C 137.29 166.01 146.58 166.05 155.87 166.05 C 151.47 160.35 146.45 154.88 144.20 147.88 C 137.16 129.90 143.30 107.41 159.06 96.08 C 170.14 87.51 185.41 83.77 198.96 88.14 C 221.04 93.45 236.74 117.56 231.89 139.89 C 230.49 149.98 224.51 158.43 218.13 166.03 C 227.42 166.03 236.70 166.01 245.99 165.98 C 246.01 136.66 246.00 107.33 246.00 78.01 C 206.67 77.99 167.34 78.00 128.01 78.00 M 152.94 134.03 C 152.95 141.87 157.49 148.62 161.18 155.23 C 163.62 149.78 166.80 144.62 171.40 140.73 C 169.55 137.14 167.28 133.65 166.42 129.66 C 165.34 121.20 169.97 112.42 177.65 108.62 C 188.23 102.49 202.98 108.96 206.56 120.40 C 209.83 127.43 206.04 134.57 202.69 140.67 C 206.60 145.08 210.25 149.77 212.93 155.04 C 219.64 145.97 223.24 134.10 219.96 122.98 C 216.49 107.70 200.70 96.27 185.04 98.11 C 166.69 97.91 150.93 115.91 152.94 134.03 M 183.40 118.37 C 177.42 119.92 176.49 128.08 179.30 132.70 C 182.01 136.78 188.00 136.83 192.06 135.07 C 196.70 132.69 196.97 126.17 195.07 121.94 C 192.99 117.76 187.42 117.20 183.40 118.37 M 30.10 127.99 C 35.64 142.14 40.65 156.49 45.89 170.76 C 52.47 169.37 59.10 168.19 65.78 167.34 C 66.17 154.23 65.94 141.11 66.01 128.00 C 54.04 128.00 42.07 127.99 30.10 127.99 M 258.00 128.00 C 258.00 140.67 258.00 153.33 258.00 166.00 C 260.66 166.00 263.33 166.00 266.00 166.00 C 266.00 153.33 266.00 140.67 266.00 128.00 C 263.33 128.00 260.66 128.00 258.00 128.00 M 179.93 148.90 C 173.68 150.90 173.13 158.83 172.22 164.24 C 181.90 165.93 191.77 165.96 201.45 164.26 C 200.56 159.90 201.27 154.57 197.65 151.37 C 192.90 147.12 185.70 147.44 179.93 148.90 M 28.27 156.68 C 27.80 196.88 27.87 237.10 28.24 277.31 C 39.97 244.61 51.82 211.94 63.30 179.15 C 54.84 179.99 43.89 185.52 37.06 177.98 C 32.96 171.44 31.42 163.68 28.27 156.68 M 76.06 178.05 C 60.40 220.58 45.48 263.37 30.14 306.01 C 106.78 305.98 183.41 306.02 260.04 306.00 C 275.72 263.47 290.46 220.60 305.94 178.00 C 229.31 178.03 152.69 177.93 76.06 178.05 Z" />
<path fill="#7375e3" opacity="1.00" d=" M 111.60 209.55 C 108.96 195.65 124.57 182.23 137.88 187.05 C 148.72 190.37 156.21 203.59 151.29 214.30 C 149.09 220.34 143.57 224.32 137.96 226.94 C 138.25 231.66 138.42 236.43 139.14 241.12 C 157.76 240.92 176.38 241.03 195.00 241.10 C 202.05 240.93 209.24 241.36 216.17 239.80 C 216.11 235.55 216.06 231.31 216.01 227.07 C 209.92 224.11 203.97 219.81 202.29 212.79 C 198.00 201.28 207.43 187.65 219.43 186.49 C 234.47 183.81 248.54 202.01 240.64 215.68 C 238.62 220.97 233.53 224.01 228.88 226.72 C 227.64 233.63 228.20 241.80 223.64 247.63 C 218.26 253.43 209.24 252.77 202.02 253.06 C 183.67 253.03 165.31 253.27 146.96 252.93 C 140.16 252.99 131.58 251.50 128.36 244.66 C 126.08 238.99 126.33 232.67 125.46 226.72 C 118.54 223.53 112.33 217.49 111.60 209.55 M 125.19 200.19 C 121.45 203.87 124.05 209.38 124.75 213.85 C 126.64 210.82 128.44 207.25 132.00 205.91 C 135.61 207.32 137.45 210.94 139.43 214.00 C 140.46 210.34 141.44 206.41 140.38 202.64 C 138.09 196.88 129.43 196.39 125.19 200.19 M 215.21 200.19 C 211.83 204.08 213.93 209.38 214.70 213.88 C 216.63 210.86 218.43 207.25 222.00 205.91 C 225.58 207.30 227.41 210.88 229.34 213.93 C 230.32 209.88 231.54 205.28 229.65 201.35 C 226.64 196.76 219.08 196.71 215.21 200.19 Z" />
</g>
</svg>
