<?xml version="1.0" encoding="UTF-8" ?>
<!DOCTYPE svg PUBLIC "-//W3C//DTD SVG 1.1//EN" "http://www.w3.org/Graphics/SVG/1.1/DTD/svg11.dtd">
<svg width="333pt" height="333pt" viewBox="0 0 333 333" version="1.1" xmlns="http://www.w3.org/2000/svg">
<g id="#de57a5ff">
<path fill="#de57a5" opacity="1.00" d=" M 153.50 0.00 L 179.50 0.00 C 185.95 1.50 192.36 3.24 198.62 5.41 C 238.77 20.69 269.87 62.05 266.72 105.91 C 266.26 120.86 263.14 136.16 254.84 148.83 C 245.75 162.58 231.54 171.84 216.97 178.95 C 211.50 182.10 204.59 184.34 201.51 190.32 C 198.97 198.32 200.62 207.29 197.07 215.05 C 190.72 227.66 175.94 235.96 161.82 233.33 C 147.55 232.01 135.43 219.94 133.14 205.96 C 132.11 186.73 134.14 165.79 145.61 149.62 C 155.88 134.44 172.69 125.65 188.63 117.58 C 192.84 115.11 198.50 112.54 199.01 106.97 C 199.25 100.19 199.05 92.77 195.02 86.98 C 189.03 77.36 179.59 68.69 167.88 67.35 C 157.26 66.57 148.17 74.13 141.61 81.62 C 134.55 89.38 133.72 100.30 131.99 110.11 C 130.27 119.45 122.31 125.92 114.61 130.54 C 96.58 139.67 71.71 128.84 67.08 108.87 C 65.12 96.93 66.69 84.60 70.20 73.09 C 81.87 35.89 115.16 6.89 153.50 0.00 Z" />
<path fill="#de57a5" opacity="1.00" d=" M 140.72 277.73 C 152.23 263.35 176.16 261.74 189.32 274.69 C 200.80 284.33 202.96 301.75 197.04 315.00 C 192.66 324.10 183.85 329.87 174.55 333.00 L 158.46 333.00 C 147.56 329.69 137.85 321.76 134.27 310.68 C 131.79 299.47 132.19 286.41 140.72 277.73 Z" />
</g>
</svg>
