<?xml version="1.0" encoding="UTF-8" ?>
<!DOCTYPE svg PUBLIC "-//W3C//DTD SVG 1.1//EN" "http://www.w3.org/Graphics/SVG/1.1/DTD/svg11.dtd">
<svg width="333pt" height="333pt" viewBox="0 0 333 333" version="1.1" xmlns="http://www.w3.org/2000/svg">
<g id="#de6d39ff">
<path fill="#de6d39" opacity="1.00" d=" M 132.34 0.00 L 200.30 0.00 C 203.14 4.51 204.25 9.80 205.69 14.87 C 223.78 15.13 241.88 14.49 259.96 15.30 C 273.56 15.12 285.46 25.77 289.90 38.09 C 292.38 47.16 291.84 56.69 292.11 65.99 C 291.90 141.00 292.00 216.01 292.08 291.02 C 292.04 300.18 291.78 310.33 285.85 317.89 C 281.00 325.45 273.05 330.46 264.58 333.00 L 67.45 333.00 C 59.47 329.96 51.85 325.21 47.15 317.89 C 41.21 310.34 40.96 300.17 40.92 291.02 C 41.00 216.01 41.10 141.00 40.89 65.99 C 41.16 56.69 40.62 47.16 43.10 38.09 C 47.54 25.77 59.44 15.12 73.04 15.30 C 91.11 14.50 109.21 15.13 127.29 14.86 C 128.79 9.85 130.25 4.81 132.34 0.00 M 74.40 38.55 C 68.61 39.24 64.28 45.21 65.17 51.00 C 64.67 129.33 65.29 207.67 64.88 286.01 C 65.42 292.95 63.62 300.91 68.05 306.95 C 72.59 310.48 78.59 309.84 83.97 310.08 C 138.99 309.96 194.01 309.96 249.03 310.08 C 255.21 309.91 264.92 310.77 266.98 303.05 C 268.78 295.88 267.81 288.32 268.12 281.00 C 267.86 216.00 268.05 151.00 268.01 86.00 C 267.89 72.81 268.67 59.58 267.43 46.42 C 266.22 41.39 261.04 38.12 256.04 38.06 C 241.14 37.57 226.24 38.12 211.35 38.05 C 211.11 42.81 212.80 50.00 206.90 51.77 C 182.95 52.53 158.94 51.78 134.97 52.06 C 131.47 51.00 126.47 53.39 123.63 50.33 C 120.45 47.12 122.04 42.11 121.69 38.03 C 105.93 38.19 90.13 37.23 74.40 38.55 Z" />
<path fill="#de6d39" opacity="1.00" d=" M 110.53 81.39 C 111.26 76.15 116.62 72.05 121.99 73.15 C 135.34 72.68 148.70 72.67 162.05 73.04 C 165.76 73.04 169.74 75.58 170.37 79.41 C 170.81 83.62 171.00 87.85 171.19 92.08 C 164.07 88.80 155.41 86.19 147.99 89.98 C 137.91 94.14 132.43 106.59 136.06 116.90 C 138.81 124.64 146.37 128.87 152.51 133.62 C 142.00 133.98 131.47 134.39 120.96 134.01 C 116.24 133.83 110.94 130.65 110.51 125.61 C 109.50 110.90 109.45 96.09 110.53 81.39 Z" />
<path fill="#de6d39" opacity="1.00" d=" M 213.78 77.77 C 218.24 73.93 225.33 72.92 229.73 77.29 C 236.46 81.57 234.86 91.70 229.19 96.17 C 217.15 107.80 204.73 119.06 192.74 130.76 C 188.41 134.79 182.40 139.87 176.17 136.78 C 166.73 131.55 157.91 125.16 149.24 118.73 C 143.79 114.71 143.74 106.02 148.11 101.12 C 151.72 98.33 156.92 96.62 161.25 98.76 C 167.40 102.23 173.20 106.30 179.03 110.27 C 191.06 99.92 201.96 88.35 213.78 77.77 Z" />
<path fill="#de6d39" opacity="1.00" d=" M 110.53 158.39 C 111.26 153.15 116.62 149.05 121.99 150.14 C 135.32 149.68 148.67 149.57 162.00 150.20 C 165.51 150.64 169.47 152.75 170.33 156.45 C 170.81 160.91 171.04 165.40 171.22 169.88 C 166.50 167.34 161.48 165.02 155.98 165.05 C 143.13 165.49 132.32 178.86 135.44 191.58 C 137.34 200.39 145.52 205.73 152.15 210.91 C 140.56 210.97 128.94 211.59 117.38 210.52 C 113.99 209.35 110.81 206.33 110.51 202.61 C 109.50 187.90 109.45 173.09 110.53 158.39 Z" />
<path fill="#de6d39" opacity="1.00" d=" M 213.32 155.31 C 219.29 149.65 231.22 150.77 233.47 159.62 C 236.60 167.69 229.18 173.33 224.27 178.27 C 212.50 188.82 201.38 200.07 189.72 210.73 C 186.38 213.05 182.78 216.51 178.27 214.75 C 168.67 210.64 160.52 203.88 151.89 198.14 C 147.58 195.34 144.13 190.61 145.25 185.13 C 145.84 178.73 152.49 174.12 158.77 175.24 C 166.47 178.06 172.78 183.46 179.80 187.54 C 190.79 176.61 202.09 165.99 213.32 155.31 Z" />
<path fill="#de6d39" opacity="1.00" d=" M 119.41 227.55 C 132.92 226.50 146.50 226.68 160.04 227.02 C 166.10 227.13 172.24 232.43 170.85 238.99 C 171.31 252.34 171.33 265.70 170.96 279.05 C 170.98 282.82 168.37 286.65 164.60 287.46 C 149.42 288.58 134.16 288.24 118.95 287.96 C 114.47 287.90 110.75 284.01 110.54 279.59 C 109.51 264.91 109.39 250.10 110.60 235.42 C 111.18 231.08 115.12 227.83 119.41 227.55 Z" />
</g>
</svg>
