<?xml version="1.0" encoding="UTF-8" ?>
<!DOCTYPE svg PUBLIC "-//W3C//DTD SVG 1.1//EN" "http://www.w3.org/Graphics/SVG/1.1/DTD/svg11.dtd">
<svg width="332pt" height="332pt" viewBox="0 0 332 332" version="1.1" xmlns="http://www.w3.org/2000/svg">
<g id="#4394e3ff">
<path fill="#4394e3" opacity="1.00" d=" M 126.37 19.12 C 126.60 15.49 129.67 12.89 133.07 12.10 C 133.88 12.29 135.51 12.67 136.32 12.86 C 138.06 14.47 140.44 16.22 140.14 18.92 C 140.12 27.62 140.15 36.33 140.13 45.03 C 140.19 47.95 137.40 49.81 134.89 50.54 C 130.75 51.73 126.49 47.98 126.38 43.86 C 126.37 35.62 126.39 27.37 126.37 19.12 Z" />
<path fill="#4394e3" opacity="1.00" d=" M 63.62 33.39 C 65.39 30.10 69.58 28.82 72.98 30.20 C 75.13 31.33 76.44 33.47 77.55 35.54 C 80.90 41.67 84.67 47.55 87.91 53.73 C 89.33 56.34 89.60 60.14 87.22 62.30 C 84.49 65.52 78.81 64.88 76.58 61.38 C 72.75 55.81 69.91 49.64 66.31 43.93 C 64.88 41.72 63.65 39.39 62.81 36.89 C 63.10 35.73 63.37 34.57 63.62 33.39 Z" />
<path fill="#4394e3" opacity="1.00" d=" M 190.84 32.91 C 193.39 27.60 202.73 28.96 203.70 34.79 C 203.71 36.26 203.99 37.90 203.19 39.24 C 198.98 46.68 194.65 54.05 190.36 61.45 C 188.77 64.35 185.10 64.73 182.20 64.06 C 180.75 63.18 179.60 61.93 178.35 60.82 C 176.30 56.90 179.16 53.27 181.00 49.95 C 184.25 44.25 187.63 38.63 190.84 32.91 Z" />
<path fill="#4394e3" opacity="1.00" d=" M 108.81 72.04 C 135.57 63.00 167.11 69.77 187.32 89.64 C 198.88 100.41 206.97 114.93 209.83 130.48 C 210.12 134.60 206.60 136.93 203.01 137.72 C 200.01 136.89 196.55 135.51 196.19 131.93 C 192.23 114.38 180.56 98.75 164.77 90.11 C 155.78 84.78 145.34 82.36 134.98 81.73 C 115.70 81.51 96.26 90.04 84.05 105.07 C 72.64 118.38 67.16 136.77 69.46 154.11 C 70.67 164.11 74.51 173.67 79.84 182.18 C 80.95 184.86 81.13 188.70 78.74 190.79 C 77.25 191.71 75.55 192.20 73.94 192.84 C 72.20 192.05 70.08 191.78 68.71 190.37 C 53.93 168.75 50.97 139.57 61.53 115.56 C 70.02 95.11 87.74 78.81 108.81 72.04 Z" />
<path fill="#4394e3" opacity="1.00" d=" M 18.51 77.53 C 20.72 76.42 23.34 74.89 25.77 76.37 C 32.30 79.64 38.47 83.61 44.90 87.09 C 47.84 88.82 52.11 90.78 51.35 94.96 C 52.26 100.26 45.39 103.63 41.20 101.06 C 34.20 97.02 27.22 92.92 20.19 88.93 C 18.60 88.15 17.72 86.55 16.70 85.19 C 16.61 82.47 16.73 79.74 18.51 77.53 Z" />
<path fill="#4394e3" opacity="1.00" d=" M 240.87 76.42 C 244.09 74.75 247.51 76.74 249.61 79.21 C 251.17 82.73 250.27 86.95 246.73 88.89 C 239.28 92.97 232.16 97.65 224.55 101.42 C 219.49 103.89 213.38 97.63 215.73 92.65 C 216.85 89.59 220.14 88.38 222.67 86.74 C 228.71 83.26 234.71 79.68 240.87 76.42 Z" />
<path fill="#4394e3" opacity="1.00" d=" M 148.50 103.64 C 151.63 102.61 155.39 102.79 158.10 104.84 C 165.87 110.26 168.21 121.67 164.03 130.01 C 161.83 134.40 156.99 137.92 151.88 136.68 C 145.64 135.09 141.81 128.84 140.53 122.88 C 138.97 115.77 141.48 106.87 148.50 103.64 Z" />
<path fill="#4394e3" opacity="1.00" d=" M 99.18 103.89 C 101.57 102.82 104.41 102.83 106.90 103.53 C 112.84 105.98 115.55 112.73 115.78 118.77 C 115.35 124.85 112.93 131.24 107.81 134.86 C 105.34 136.70 102.06 137.34 99.09 136.54 C 94.79 135.14 91.69 131.24 90.46 127.00 C 87.76 118.63 91.25 108.09 99.18 103.89 Z" />
<path fill="#4394e3" opacity="1.00" d=" M 90.54 144.52 C 87.60 142.15 90.48 137.17 94.03 138.15 C 98.22 139.14 104.41 138.63 105.92 143.76 C 104.86 145.50 103.36 147.64 100.99 147.15 C 97.47 146.49 93.79 146.06 90.54 144.52 Z" />
<path fill="#4394e3" opacity="1.00" d=" M 0.00 143.69 C 1.20 140.97 4.05 139.21 7.01 139.35 C 14.68 139.33 22.36 139.37 30.03 139.33 C 32.16 139.11 34.05 140.16 35.94 140.97 C 38.26 144.26 38.19 148.39 35.80 151.61 C 33.94 152.34 32.07 153.22 30.02 153.11 C 21.96 153.09 13.90 153.16 5.84 153.08 C 3.10 153.24 1.15 150.96 0.00 148.76 L 0.00 143.69 Z" />
<path fill="#4394e3" opacity="1.00" d=" M 154.46 139.53 C 157.53 138.93 160.66 137.77 163.83 138.32 C 166.61 139.01 166.97 143.27 164.73 144.76 C 161.24 145.96 157.62 146.99 153.93 147.22 C 150.96 147.35 149.28 143.50 150.91 141.22 C 151.89 140.30 153.20 139.89 154.46 139.53 Z" />
<path fill="#4394e3" opacity="1.00" d=" M 179.21 168.63 C 190.94 148.87 214.61 137.54 237.33 139.57 C 251.16 140.85 264.76 146.52 274.71 156.32 C 290.40 170.58 297.87 193.57 293.00 214.26 C 299.46 215.99 305.67 218.84 310.98 222.94 C 321.91 231.48 330.58 244.10 331.28 258.29 L 332.00 254.14 L 332.00 277.99 L 331.32 273.42 C 330.78 285.19 324.58 296.13 316.17 304.13 C 306.45 314.53 292.01 319.41 278.02 319.85 C 223.02 319.84 168.03 319.84 113.03 319.85 C 101.57 320.11 89.82 318.73 79.30 313.95 C 59.96 305.26 45.75 286.11 43.34 265.01 C 40.95 248.47 45.81 231.10 56.20 218.03 C 61.93 211.35 68.45 205.15 76.46 201.29 C 88.41 194.92 102.48 193.03 115.76 195.19 C 119.56 186.25 125.89 178.32 134.16 173.14 C 147.32 164.56 164.60 162.82 179.21 168.63 M 190.57 176.56 C 188.58 179.45 187.34 184.16 183.10 184.25 C 178.15 185.01 174.56 180.60 169.80 180.12 C 161.13 177.57 151.61 179.22 143.81 183.60 C 134.97 188.33 128.61 197.14 126.28 206.83 C 124.39 209.15 121.32 210.90 118.29 209.73 C 101.84 205.20 83.14 209.96 71.19 222.22 C 62.02 230.95 56.94 243.44 56.41 256.00 C 56.35 274.05 66.57 292.06 82.90 300.15 C 92.29 305.44 103.41 306.30 113.97 306.08 C 167.65 306.10 221.34 306.06 275.02 306.11 C 285.99 306.33 297.24 302.93 305.39 295.38 C 313.52 288.04 318.96 277.16 318.34 266.08 C 319.33 247.32 304.19 229.76 285.87 226.78 C 283.99 226.33 281.80 226.42 280.33 224.97 C 278.56 223.58 278.15 221.28 277.44 219.29 C 279.15 214.72 280.01 209.90 280.69 205.09 C 281.25 193.95 278.03 182.55 271.47 173.50 C 263.38 162.01 250.02 154.55 236.06 153.31 C 218.12 151.70 199.84 161.16 190.57 176.56 Z" />
<path fill="#4394e3" opacity="1.00" d=" M 110.02 148.18 C 110.90 145.89 112.40 143.90 114.95 143.40 C 119.51 144.86 124.36 144.72 129.09 144.74 C 133.04 144.73 137.07 144.58 140.85 143.29 C 143.24 144.12 145.89 146.19 145.19 149.05 C 143.75 153.98 139.95 158.12 135.32 160.28 C 131.85 162.12 127.80 161.50 124.04 161.44 C 117.27 160.20 112.15 154.53 110.02 148.18 Z" />
<path fill="#4394e3" opacity="1.00" d=" M 41.31 191.46 C 44.94 189.20 49.49 191.40 51.30 194.93 C 51.40 197.81 51.69 201.24 48.92 203.05 C 41.56 207.34 34.19 211.62 26.81 215.87 C 23.20 218.08 18.49 215.75 16.69 212.26 C 16.79 209.52 16.28 205.99 19.10 204.39 C 26.40 199.91 33.91 195.77 41.31 191.46 Z" />
</g>
</svg>
